#N canvas 113 271 1383 702 10;
#X obj 201 605 outlet;
#X obj 69 605 outlet;
#X obj 576 616 outlet;
#X obj 432 620 outlet;
#X obj 900 614 outlet;
#X obj 742 619 outlet;
#X obj 1230 597 outlet;
#X obj 1071 606 outlet;
#X obj 52 257 *~ 1;
#X obj 81 372 tgl 15 0 empty empty empty 17 7 0 10 -262144 -1 -1 1
1;
#X obj 81 414 snapshot~;
#X obj 107 253 loadbang;
#X floatatom 111 456 10 0 0 0 - - -, f 10;
#X obj 24 308 pow~;
#X msg 81 288 16;
#X obj 20 328 clip~ 1e-07 2;
#X obj 209 258 *~ 1;
#X obj 238 373 tgl 15 0 empty empty empty 17 7 0 10 -262144 -1 -1 1
1;
#X obj 238 415 snapshot~;
#X obj 264 254 loadbang;
#X floatatom 268 457 10 0 0 0 - - -, f 10;
#X obj 181 309 pow~;
#X msg 238 289 16;
#X obj 177 329 clip~ 1e-07 2;
#X obj 388 264 *~ 1;
#X obj 417 379 tgl 15 0 empty empty empty 17 7 0 10 -262144 -1 -1 1
1;
#X obj 417 421 snapshot~;
#X obj 443 260 loadbang;
#X floatatom 447 463 10 0 0 0 - - -, f 10;
#X obj 360 315 pow~;
#X msg 417 295 16;
#X obj 356 335 clip~ 1e-07 2;
#X obj 545 265 *~ 1;
#X obj 574 380 tgl 15 0 empty empty empty 17 7 0 10 -262144 -1 -1 1
1;
#X obj 574 422 snapshot~;
#X obj 600 261 loadbang;
#X floatatom 604 464 10 0 0 0 - - -, f 10;
#X obj 517 316 pow~;
#X msg 574 296 16;
#X obj 513 336 clip~ 1e-07 2;
#X obj 714 259 *~ 1;
#X obj 743 374 tgl 15 0 empty empty empty 17 7 0 10 -262144 -1 -1 1
1;
#X obj 743 416 snapshot~;
#X obj 769 255 loadbang;
#X floatatom 773 458 10 0 0 0 - - -, f 10;
#X obj 686 310 pow~;
#X msg 743 290 16;
#X obj 682 330 clip~ 1e-07 2;
#X obj 871 260 *~ 1;
#X obj 900 375 tgl 15 0 empty empty empty 17 7 0 10 -262144 -1 -1 1
1;
#X obj 900 417 snapshot~;
#X obj 926 256 loadbang;
#X floatatom 930 459 10 0 0 0 - - -, f 10;
#X obj 843 311 pow~;
#X msg 900 291 16;
#X obj 839 331 clip~ 1e-07 2;
#X obj 1050 266 *~ 1;
#X obj 1079 381 tgl 15 0 empty empty empty 17 7 0 10 -262144 -1 -1
1 1;
#X obj 1079 423 snapshot~;
#X obj 1105 262 loadbang;
#X floatatom 1109 465 10 0 0 0 - - -, f 10;
#X obj 1022 317 pow~;
#X msg 1079 297 16;
#X obj 1018 337 clip~ 1e-07 2;
#X obj 1207 267 *~ 1;
#X obj 1236 382 tgl 15 0 empty empty empty 17 7 0 10 -262144 -1 -1
1 1;
#X obj 1236 424 snapshot~;
#X obj 1262 263 loadbang;
#X floatatom 1266 466 10 0 0 0 - - -, f 10;
#X obj 1179 318 pow~;
#X msg 1236 298 16;
#X obj 1175 338 clip~ 1e-07 2;
#X obj 185 74 inlet;
#X obj 115 74 inlet;
#X obj 458 72 inlet;
#X obj 388 72 inlet;
#X obj 815 71 inlet;
#X obj 745 71 inlet;
#X obj 1088 69 inlet;
#X obj 1018 69 inlet;
#X obj 1236 402 metro 100;
#X obj 1079 401 metro 100;
#X obj 900 395 metro 100;
#X obj 743 395 metro 100;
#X obj 574 400 metro 100;
#X obj 417 399 metro 100;
#X obj 237 392 metro 100;
#X obj 81 392 metro 100;
#X obj 1043 191 osc~ 0.01;
#X obj 1200 192 osc~ 0.01;
#X obj 864 185 osc~ 0.01;
#X obj 707 184 osc~ 0.01;
#X obj 538 189 osc~ 0.01;
#X obj 381 189 osc~ 0.01;
#X obj 202 183 osc~ 0.01;
#X obj 46 182 osc~ 0.01;
#X connect 8 0 13 0;
#X connect 9 0 87 0;
#X connect 10 0 1 0;
#X connect 10 0 12 0;
#X connect 11 0 9 0;
#X connect 11 0 14 0;
#X connect 13 0 15 0;
#X connect 14 0 13 1;
#X connect 15 0 10 0;
#X connect 16 0 21 0;
#X connect 17 0 86 0;
#X connect 18 0 20 0;
#X connect 18 0 0 0;
#X connect 19 0 17 0;
#X connect 19 0 22 0;
#X connect 21 0 23 0;
#X connect 22 0 21 1;
#X connect 23 0 18 0;
#X connect 24 0 29 0;
#X connect 25 0 85 0;
#X connect 26 0 28 0;
#X connect 26 0 3 0;
#X connect 27 0 25 0;
#X connect 27 0 30 0;
#X connect 29 0 31 0;
#X connect 30 0 29 1;
#X connect 31 0 26 0;
#X connect 32 0 37 0;
#X connect 33 0 84 0;
#X connect 34 0 36 0;
#X connect 34 0 2 0;
#X connect 35 0 33 0;
#X connect 35 0 38 0;
#X connect 37 0 39 0;
#X connect 38 0 37 1;
#X connect 39 0 34 0;
#X connect 40 0 45 0;
#X connect 41 0 83 0;
#X connect 42 0 44 0;
#X connect 42 0 5 0;
#X connect 43 0 41 0;
#X connect 43 0 46 0;
#X connect 45 0 47 0;
#X connect 46 0 45 1;
#X connect 47 0 42 0;
#X connect 48 0 53 0;
#X connect 49 0 82 0;
#X connect 50 0 52 0;
#X connect 50 0 4 0;
#X connect 51 0 49 0;
#X connect 51 0 54 0;
#X connect 53 0 55 0;
#X connect 54 0 53 1;
#X connect 55 0 50 0;
#X connect 56 0 61 0;
#X connect 57 0 81 0;
#X connect 58 0 60 0;
#X connect 58 0 7 0;
#X connect 59 0 57 0;
#X connect 59 0 62 0;
#X connect 61 0 63 0;
#X connect 62 0 61 1;
#X connect 63 0 58 0;
#X connect 64 0 69 0;
#X connect 65 0 80 0;
#X connect 66 0 68 0;
#X connect 66 0 6 0;
#X connect 67 0 65 0;
#X connect 67 0 70 0;
#X connect 69 0 71 0;
#X connect 70 0 69 1;
#X connect 71 0 66 0;
#X connect 72 0 94 0;
#X connect 73 0 95 0;
#X connect 74 0 92 0;
#X connect 75 0 93 0;
#X connect 76 0 90 0;
#X connect 77 0 91 0;
#X connect 78 0 89 0;
#X connect 79 0 88 0;
#X connect 80 0 66 0;
#X connect 81 0 58 0;
#X connect 82 0 50 0;
#X connect 83 0 42 0;
#X connect 84 0 34 0;
#X connect 85 0 26 0;
#X connect 86 0 18 0;
#X connect 87 0 10 0;
#X connect 88 0 56 0;
#X connect 89 0 64 0;
#X connect 90 0 48 0;
#X connect 91 0 40 0;
#X connect 92 0 32 0;
#X connect 93 0 24 0;
#X connect 94 0 16 0;
#X connect 95 0 8 0;
