#N canvas 223 128 1242 609 10;
#X obj 87 534 outlet;
#X obj 42 534 outlet;
#X obj 479 538 outlet;
#X obj 433 539 outlet;
#X obj 712 538 outlet;
#X obj 667 538 outlet;
#X obj 948 538 outlet;
#X obj 903 538 outlet;
#X obj 27 187 *~ 1;
#X obj 56 223 tgl 15 0 empty empty empty 17 7 0 10 -262144 -1 -1 1
1;
#X obj 56 265 snapshot~;
#X obj 64 197 loadbang;
#X obj 514 186 osc~;
#X obj 518 213 *~ 1;
#X obj 527 263 tgl 15 0 empty empty empty 17 7 0 10 -262144 -1 -1 1
1;
#X obj 527 305 snapshot~;
#X obj 525 239 loadbang;
#X obj 412 181 *~ 1;
#X obj 423 226 tgl 15 0 empty empty empty 17 7 0 10 -262144 -1 -1 1
1;
#X obj 423 268 snapshot~;
#X obj 431 200 loadbang;
#X obj 653 183 osc~;
#X obj 657 210 *~ 1;
#X obj 666 260 tgl 15 0 empty empty empty 17 7 0 10 -262144 -1 -1 1
1;
#X obj 666 302 snapshot~;
#X obj 664 236 loadbang;
#X obj 731 185 osc~;
#X obj 735 212 *~ 1;
#X obj 744 262 tgl 15 0 empty empty empty 17 7 0 10 -262144 -1 -1 1
1;
#X obj 744 304 snapshot~;
#X obj 742 238 loadbang;
#X obj 904 273 tgl 15 0 empty empty empty 17 7 0 10 -262144 -1 -1 1
1;
#X obj 904 315 snapshot~;
#X obj 912 247 loadbang;
#X obj 183 117 phasor~;
#X obj 189 191 *~ 1;
#X obj 192 243 tgl 15 0 empty empty empty 17 7 0 10 -262144 -1 -1 1
1;
#X obj 192 285 snapshot~;
#X obj 200 217 loadbang;
#X obj 1041 163 phasor~;
#X obj 1045 237 *~ 1;
#X obj 1048 300 tgl 15 0 empty empty empty 17 7 0 10 -262144 -1 -1
1 1;
#X obj 1048 342 snapshot~;
#X obj 1056 274 loadbang;
#X obj 105 52 inlet;
#X obj 65 52 inlet;
#X obj 491 50 inlet;
#X obj 451 50 inlet;
#X obj 710 50 inlet;
#X obj 670 50 inlet;
#X obj 970 50 inlet;
#X obj 930 50 inlet;
#X obj 38 82 * 190;
#X obj 179 97 * 100;
#X obj 423 93 * 190;
#X obj 494 90 * 100;
#X obj 648 111 * 190;
#X obj 734 111 * 100;
#X obj 911 110 * 190;
#X obj 982 107 * 100;
#X obj 36 154 tabread4~ squareWave;
#X obj 38 109 phasor~;
#X obj 37 134 *~ 2051;
#X obj 412 162 tabread4~ squareWave;
#X obj 414 117 phasor~;
#X obj 413 142 *~ 2051;
#X obj 892 191 tabread4~ squareWave;
#X obj 894 146 phasor~;
#X obj 893 171 *~ 2051;
#X obj 897 216 *~ 1;
#X obj 190 165 tabread4~ triangleWave;
#X obj 181 139 *~ 2051;
#X obj 1060 210 tabread4~ triangleWave;
#X obj 1051 184 *~ 2051;
#X obj 666 280 metro 100;
#X obj 744 282 metro 100;
#X obj 904 293 metro 100;
#X obj 1048 321 metro 100;
#X obj 528 283 metro 100;
#X obj 423 246 metro 100;
#X obj 192 263 metro 100;
#X obj 56 243 metro 100;
#X connect 8 0 10 0;
#X connect 9 0 81 0;
#X connect 10 0 1 0;
#X connect 11 0 9 0;
#X connect 12 0 13 0;
#X connect 13 0 15 0;
#X connect 14 0 78 0;
#X connect 15 0 2 0;
#X connect 16 0 14 0;
#X connect 17 0 19 0;
#X connect 18 0 79 0;
#X connect 19 0 3 0;
#X connect 20 0 18 0;
#X connect 21 0 22 0;
#X connect 22 0 24 0;
#X connect 23 0 74 0;
#X connect 24 0 5 0;
#X connect 25 0 23 0;
#X connect 26 0 27 0;
#X connect 27 0 29 0;
#X connect 28 0 75 0;
#X connect 29 0 4 0;
#X connect 30 0 28 0;
#X connect 31 0 76 0;
#X connect 32 0 7 0;
#X connect 33 0 31 0;
#X connect 34 0 71 0;
#X connect 35 0 37 0;
#X connect 36 0 80 0;
#X connect 37 0 0 0;
#X connect 38 0 36 0;
#X connect 39 0 73 0;
#X connect 40 0 42 0;
#X connect 41 0 77 0;
#X connect 42 0 6 0;
#X connect 43 0 41 0;
#X connect 44 0 53 0;
#X connect 45 0 52 0;
#X connect 46 0 55 0;
#X connect 47 0 54 0;
#X connect 48 0 57 0;
#X connect 49 0 56 0;
#X connect 50 0 59 0;
#X connect 51 0 58 0;
#X connect 52 0 61 0;
#X connect 53 0 34 0;
#X connect 54 0 64 0;
#X connect 55 0 12 0;
#X connect 56 0 21 0;
#X connect 57 0 26 0;
#X connect 58 0 67 0;
#X connect 59 0 39 0;
#X connect 60 0 8 0;
#X connect 61 0 62 0;
#X connect 62 0 60 0;
#X connect 63 0 17 0;
#X connect 64 0 65 0;
#X connect 65 0 63 0;
#X connect 66 0 69 0;
#X connect 67 0 68 0;
#X connect 68 0 66 0;
#X connect 69 0 32 0;
#X connect 70 0 35 0;
#X connect 71 0 70 0;
#X connect 72 0 40 0;
#X connect 73 0 72 0;
#X connect 74 0 24 0;
#X connect 75 0 29 0;
#X connect 76 0 32 0;
#X connect 77 0 42 0;
#X connect 78 0 15 0;
#X connect 79 0 19 0;
#X connect 80 0 37 0;
#X connect 81 0 10 0;
