#N canvas 786 130 887 641 10;
#X obj 603 211 osc~;
#X obj 185 311 hip~ 3000;
#X obj 108 312 hip~ 3000;
#X obj 320 310 hip~ 3000;
#X obj 258 310 hip~ 3000;
#X obj 609 293 hip~ 3000;
#X obj 543 290 hip~ 3000;
#X obj 733 293 hip~ 3000;
#X obj 671 293 hip~ 3000;
#X obj 177 279 *~;
#X obj 272 275 *~;
#X obj 629 246 *~;
#X obj 686 247 *~;
#X obj 182 417 outlet~;
#X obj 117 418 outlet~;
#X obj 318 418 outlet~;
#X obj 253 419 outlet~;
#X obj 595 411 outlet~;
#X obj 530 412 outlet~;
#X obj 731 412 outlet~;
#X obj 666 413 outlet~;
#X obj 46 35 inlet;
#X obj 88 35 inlet;
#X obj 277 38 inlet;
#X obj 313 41 inlet;
#X obj 571 41 inlet;
#X obj 636 44 inlet;
#X obj 720 49 inlet;
#X obj 766 65 inlet;
#X obj 432 40 loadbang;
#X obj 432 67 s \$0-loadbang;
#X obj 688 207 phasor~;
#X obj 101 194 phasor~;
#X obj 269 181 phasor~;
#X obj 44 107 + 2000;
#X obj 109 64 + 1;
#X obj 115 85 / 2;
#X obj 43 86 * 8000;
#X obj 253 96 + 2000;
#X obj 318 77 + 1;
#X obj 313 103 / 2;
#X obj 252 75 * 8000;
#X obj 549 117 + 2000;
#X obj 641 69 + 1;
#X obj 636 95 / 2;
#X obj 548 96 * 8000;
#X obj 758 119 + 2000;
#X obj 823 100 + 1;
#X obj 818 126 / 2;
#X obj 757 98 * 8000;
#X floatatom 200 137 5 0 0 0 - - -, f 5;
#X floatatom 767 148 5 0 0 0 - - -, f 5;
#X floatatom 544 195 5 0 0 0 - - -, f 5;
#X floatatom 23 167 5 0 0 0 - - -, f 5;
#X obj 38 60 abs;
#X obj 254 57 abs;
#X obj 548 70 abs;
#X obj 710 72 abs;
#X obj 185 344 hip~ 3000;
#X obj 108 345 hip~ 3000;
#X obj 320 343 hip~ 3000;
#X obj 258 343 hip~ 3000;
#X obj 609 326 hip~ 3000;
#X obj 547 326 hip~ 3000;
#X obj 733 326 hip~ 3000;
#X obj 671 326 hip~ 3000;
#X obj 142 142 line~;
#X obj 334 146 line~;
#X obj 641 141 line~;
#X obj 805 174 line~;
#X obj 100 228 *~ 2501;
#X obj 104 249 tabread4~ squareWave;
#X obj 262 243 tabread4~ squareWave;
#X obj 280 219 *~ 2501;
#X obj 334 123 pack 0 100;
#X obj 140 118 pack 0 100;
#X obj 639 117 pack 0 100;
#X obj 809 150 pack 0 100;
#X obj 575 151 pack 0 100;
#X obj 575 173 line;
#X obj 702 160 pack 0 100;
#X obj 702 182 line;
#X obj 267 130 pack 0 100;
#X obj 267 152 line;
#X obj 77 152 pack 0 100;
#X obj 77 174 line;
#X connect 0 0 11 0;
#X connect 1 0 58 0;
#X connect 2 0 59 0;
#X connect 3 0 60 0;
#X connect 4 0 61 0;
#X connect 5 0 62 0;
#X connect 6 0 63 0;
#X connect 7 0 64 0;
#X connect 8 0 65 0;
#X connect 9 0 2 0;
#X connect 9 0 3 0;
#X connect 10 0 4 0;
#X connect 10 0 1 0;
#X connect 11 0 5 0;
#X connect 11 0 8 0;
#X connect 12 0 6 0;
#X connect 12 0 7 0;
#X connect 21 0 54 0;
#X connect 22 0 35 0;
#X connect 23 0 55 0;
#X connect 24 0 39 0;
#X connect 25 0 56 0;
#X connect 26 0 43 0;
#X connect 27 0 57 0;
#X connect 28 0 47 0;
#X connect 29 0 30 0;
#X connect 31 0 12 0;
#X connect 32 0 70 0;
#X connect 33 0 73 0;
#X connect 34 0 53 0;
#X connect 34 0 84 0;
#X connect 35 0 36 0;
#X connect 36 0 75 0;
#X connect 37 0 34 0;
#X connect 38 0 50 0;
#X connect 38 0 82 0;
#X connect 39 0 40 0;
#X connect 40 0 74 0;
#X connect 41 0 38 0;
#X connect 42 0 52 0;
#X connect 42 0 78 0;
#X connect 43 0 44 0;
#X connect 44 0 76 0;
#X connect 45 0 42 0;
#X connect 46 0 51 0;
#X connect 46 0 80 0;
#X connect 47 0 48 0;
#X connect 48 0 77 0;
#X connect 49 0 46 0;
#X connect 54 0 37 0;
#X connect 55 0 41 0;
#X connect 56 0 45 0;
#X connect 57 0 49 0;
#X connect 58 0 13 0;
#X connect 59 0 14 0;
#X connect 60 0 15 0;
#X connect 61 0 16 0;
#X connect 62 0 17 0;
#X connect 63 0 18 0;
#X connect 64 0 19 0;
#X connect 65 0 20 0;
#X connect 66 0 9 1;
#X connect 67 0 10 1;
#X connect 68 0 11 1;
#X connect 69 0 12 1;
#X connect 70 0 71 0;
#X connect 71 0 9 0;
#X connect 72 0 10 0;
#X connect 73 0 72 0;
#X connect 74 0 67 0;
#X connect 75 0 66 0;
#X connect 76 0 68 0;
#X connect 77 0 69 0;
#X connect 78 0 79 0;
#X connect 79 0 0 0;
#X connect 80 0 81 0;
#X connect 81 0 31 0;
#X connect 82 0 83 0;
#X connect 83 0 33 0;
#X connect 84 0 85 0;
#X connect 85 0 32 0;
