#N canvas 139 271 1204 560 10;
#X obj 217 496 outlet;
#X obj 42 501 outlet;
#X obj 545 484 outlet;
#X obj 402 485 outlet;
#X obj 881 475 outlet;
#X obj 679 482 outlet;
#X obj 203 54 inlet;
#X obj 45 53 inlet;
#X obj 524 53 inlet;
#X obj 385 54 inlet;
#X obj 843 64 inlet;
#X obj 655 53 inlet;
#X obj 21 177 tgl 15 0 empty empty empty 17 7 0 10 -262144 -1 -1 1
1;
#X obj 23 151 loadbang;
#X obj 24 199 metro 1000;
#X obj 94 142 * 10;
#X obj 61 298 random 100000;
#X obj 59 333 / 100000;
#X obj 161 172 tgl 15 0 empty empty empty 17 7 0 10 -262144 -1 -1 1
1;
#X obj 163 146 loadbang;
#X obj 164 194 metro 1000;
#X obj 234 137 * 10;
#X obj 201 293 random 100000;
#X obj 199 328 / 50000;
#X obj 380 113 * 100;
#X obj 522 112 * 100;
#X obj 366 174 tgl 15 0 empty empty empty 17 7 0 10 -262144 -1 -1 1
1;
#X obj 368 148 loadbang;
#X obj 369 196 metro 1000;
#X obj 406 295 random 100000;
#X obj 501 172 tgl 15 0 empty empty empty 17 7 0 10 -262144 -1 -1 1
1;
#X obj 503 146 loadbang;
#X obj 504 194 metro 1000;
#X obj 541 293 random 100000;
#X obj 539 328 / 100;
#X obj 404 330 / 100;
#X obj 687 271 random 100000;
#X obj 684 310 / 200000;
#X obj 678 344 + 0.5;
#X obj 869 272 random 100000;
#X obj 866 311 / 200000;
#X obj 860 345 + 0.5;
#X obj 683 160 tgl 15 0 empty empty empty 17 7 0 10 -262144 -1 -1 1
1;
#X obj 685 134 loadbang;
#X obj 686 182 metro 1000;
#X obj 845 160 tgl 15 0 empty empty empty 17 7 0 10 -262144 -1 -1 1
1;
#X obj 847 134 loadbang;
#X obj 848 182 metro 1000;
#X obj 683 92 * 100;
#X obj 858 102 * 100;
#X connect 6 0 21 0;
#X connect 7 0 15 0;
#X connect 8 0 25 0;
#X connect 9 0 24 0;
#X connect 10 0 49 0;
#X connect 11 0 48 0;
#X connect 12 0 14 0;
#X connect 13 0 12 0;
#X connect 14 0 16 0;
#X connect 15 0 14 1;
#X connect 16 0 17 0;
#X connect 17 0 1 0;
#X connect 18 0 20 0;
#X connect 19 0 18 0;
#X connect 20 0 22 0;
#X connect 21 0 20 1;
#X connect 22 0 23 0;
#X connect 23 0 0 0;
#X connect 24 0 28 1;
#X connect 25 0 32 1;
#X connect 26 0 28 0;
#X connect 27 0 26 0;
#X connect 28 0 29 0;
#X connect 29 0 35 0;
#X connect 30 0 32 0;
#X connect 31 0 30 0;
#X connect 32 0 33 0;
#X connect 33 0 34 0;
#X connect 34 0 2 0;
#X connect 35 0 3 0;
#X connect 36 0 37 0;
#X connect 37 0 38 0;
#X connect 38 0 5 0;
#X connect 39 0 40 0;
#X connect 40 0 41 0;
#X connect 41 0 4 0;
#X connect 42 0 44 0;
#X connect 43 0 42 0;
#X connect 44 0 36 0;
#X connect 45 0 47 0;
#X connect 46 0 45 0;
#X connect 47 0 39 0;
#X connect 48 0 44 1;
#X connect 49 0 47 1;
