#N canvas 0 22 963 610 10;
#X obj 195 421 outlet;
#X obj 56 422 outlet;
#X obj 486 422 outlet;
#X obj 341 424 outlet;
#X obj 815 425 outlet;
#X obj 629 427 outlet;
#X obj 220 26 inlet;
#X obj 44 30 inlet;
#X obj 509 23 inlet;
#X obj 368 28 inlet;
#X obj 819 25 inlet;
#X obj 639 20 inlet;
#X obj 50 118 *~ 1;
#X obj 81 249 tgl 15 0 empty empty empty 17 7 0 10 -262144 -1 -1 1
1;
#X obj 81 291 snapshot~;
#X obj 107 130 loadbang;
#X floatatom 95 333 10 0 0 0 - - -, f 10;
#X obj 24 177 pow~;
#X msg 81 165 99;
#X obj 20 205 clip~ 1e-05 1;
#X obj 222 118 *~ 1;
#X obj 253 249 tgl 15 0 empty empty empty 17 7 0 10 -262144 -1 -1 1
1;
#X obj 253 291 snapshot~;
#X obj 279 130 loadbang;
#X floatatom 250 333 10 0 0 0 - - -, f 10;
#X obj 196 185 pow~;
#X msg 253 165 99;
#X obj 192 205 clip~ 1e-05 1;
#X obj 371 121 *~ 1;
#X obj 402 252 tgl 15 0 empty empty empty 17 7 0 10 -262144 -1 -1 1
1;
#X obj 402 294 snapshot~;
#X obj 428 133 loadbang;
#X floatatom 399 336 10 0 0 0 - - -, f 10;
#X obj 345 188 pow~;
#X msg 402 168 99;
#X obj 341 208 clip~ 1e-05 1;
#X obj 513 120 *~ 1;
#X obj 544 251 tgl 15 0 empty empty empty 17 7 0 10 -262144 -1 -1 1
1;
#X obj 544 293 snapshot~;
#X obj 570 132 loadbang;
#X floatatom 541 335 10 0 0 0 - - -, f 10;
#X obj 487 187 pow~;
#X msg 544 167 99;
#X obj 483 207 clip~ 1e-05 1;
#X obj 660 118 *~ 1;
#X obj 691 249 tgl 15 0 empty empty empty 17 7 0 10 -262144 -1 -1 1
1;
#X obj 691 291 snapshot~;
#X obj 717 130 loadbang;
#X floatatom 688 333 10 0 0 0 - - -, f 10;
#X obj 634 185 pow~;
#X msg 691 165 99;
#X obj 630 205 clip~ 1e-05 1;
#X obj 825 101 *~ 1;
#X obj 856 232 tgl 15 0 empty empty empty 17 7 0 10 -262144 -1 -1 1
1;
#X obj 856 274 snapshot~;
#X obj 882 113 loadbang;
#X floatatom 853 316 10 0 0 0 - - -, f 10;
#X obj 799 168 pow~;
#X msg 856 148 99;
#X obj 795 188 clip~ 1e-05 1;
#X obj 856 252 metro 100;
#X obj 691 269 metro 100;
#X obj 544 271 metro 100;
#X obj 401 272 metro 100;
#X obj 253 269 metro 100;
#X obj 81 269 metro 100;
#X obj 824 74 osc~ 0.01;
#X obj 659 91 osc~ 0.01;
#X obj 512 93 osc~ 0.01;
#X obj 370 94 osc~ 0.01;
#X obj 221 91 osc~ 0.01;
#X obj 49 91 osc~ 0.01;
#X connect 6 0 70 0;
#X connect 7 0 71 0;
#X connect 8 0 68 0;
#X connect 9 0 69 0;
#X connect 10 0 66 0;
#X connect 11 0 67 0;
#X connect 12 0 17 0;
#X connect 13 0 65 0;
#X connect 14 0 16 0;
#X connect 14 0 1 0;
#X connect 15 0 13 0;
#X connect 15 0 18 0;
#X connect 17 0 19 0;
#X connect 18 0 17 1;
#X connect 19 0 14 0;
#X connect 20 0 25 0;
#X connect 21 0 64 0;
#X connect 22 0 24 0;
#X connect 22 0 0 0;
#X connect 23 0 21 0;
#X connect 23 0 26 0;
#X connect 25 0 27 0;
#X connect 26 0 25 1;
#X connect 27 0 22 0;
#X connect 28 0 33 0;
#X connect 29 0 63 0;
#X connect 30 0 32 0;
#X connect 30 0 3 0;
#X connect 31 0 29 0;
#X connect 31 0 34 0;
#X connect 33 0 35 0;
#X connect 34 0 33 1;
#X connect 35 0 30 0;
#X connect 36 0 41 0;
#X connect 37 0 62 0;
#X connect 38 0 40 0;
#X connect 38 0 2 0;
#X connect 39 0 37 0;
#X connect 39 0 42 0;
#X connect 41 0 43 0;
#X connect 42 0 41 1;
#X connect 43 0 38 0;
#X connect 44 0 49 0;
#X connect 45 0 61 0;
#X connect 46 0 48 0;
#X connect 46 0 5 0;
#X connect 47 0 45 0;
#X connect 47 0 50 0;
#X connect 49 0 51 0;
#X connect 50 0 49 1;
#X connect 51 0 46 0;
#X connect 52 0 57 0;
#X connect 53 0 60 0;
#X connect 54 0 56 0;
#X connect 54 0 4 0;
#X connect 55 0 53 0;
#X connect 55 0 58 0;
#X connect 57 0 59 0;
#X connect 58 0 57 1;
#X connect 59 0 54 0;
#X connect 60 0 54 0;
#X connect 61 0 46 0;
#X connect 62 0 38 0;
#X connect 63 0 30 0;
#X connect 64 0 22 0;
#X connect 65 0 14 0;
#X connect 66 0 52 0;
#X connect 67 0 44 0;
#X connect 68 0 36 0;
#X connect 69 0 28 0;
#X connect 70 0 20 0;
#X connect 71 0 12 0;
