#N canvas 152 283 917 660 10;
#N canvas 619 288 450 300 plain-osc 0;
#X obj 76 87 inlet;
#X obj 235 35 inlet;
#X obj 91 170 osc~;
#X obj 236 185 osc~;
#X obj 172 94 *;
#X obj 162 32 inlet;
#X obj 104 221 *~;
#X obj 226 217 *~ 0.75;
#X obj 124 266 outlet~;
#X obj 218 267 outlet~;
#X floatatom 167 133 5 0 0 0 - - -, f 5;
#X obj 132 154 pack 0 10;
#X obj 132 176 line~;
#X obj 232 125 pack 0 10;
#X obj 232 147 line~;
#X connect 0 0 2 0;
#X connect 1 0 4 1;
#X connect 2 0 6 0;
#X connect 3 0 7 0;
#X connect 4 0 10 0;
#X connect 4 0 13 0;
#X connect 5 0 4 0;
#X connect 5 0 11 0;
#X connect 6 0 8 0;
#X connect 7 0 9 0;
#X connect 11 0 12 0;
#X connect 12 0 6 1;
#X connect 13 0 14 0;
#X connect 14 0 3 0;
#X restore 81 192 pd plain-osc;
#X msg 71 139 11095;
#X msg 155 139 7246;
#N canvas 57 90 1022 841 stereo-flanger 0;
#X obj 105 37 inlet~;
#X obj 244 37 inlet~;
#X obj 118 282 phasor~;
#X obj 116 346 cos~;
#X obj 158 348 +~ 0.5;
#X obj 157 375 wrap~;
#X obj 154 403 cos~;
#X obj 160 436 *~ 2;
#X obj 161 464 +~ 2;
#X obj 110 376 *~ 2;
#X obj 105 406 +~ 2;
#X obj 52 591 *~ 0.8;
#X obj 222 583 s~ \$0-flanger-outL;
#X obj 166 523 *~ 0.8;
#X obj 474 253 phasor~;
#X obj 456 300 cos~;
#X obj 498 302 +~ 0.5;
#X obj 497 329 wrap~;
#X obj 494 362 cos~;
#X obj 500 390 *~ 2;
#X obj 501 418 +~ 2;
#X obj 450 330 *~ 2;
#X obj 445 360 +~ 2;
#X obj 416 555 *~ 0.8;
#X obj 506 477 *~ 0.8;
#X obj 550 549 s~ \$0-flanger-outR;
#X obj 97 614 r~ \$0-flanger-outL;
#X obj 77 692 outlet~;
#X obj 396 613 r~ \$0-flanger-outR;
#X obj 385 703 outlet~;
#X obj 466 33 inlet;
#X obj 540 36 inlet;
#X obj 598 36 inlet;
#X obj 269 89 delwrite~ \$0-1R;
#X obj 248 131 delwrite~ \$0-2R;
#X obj 508 450 vd~ \$0-2R;
#X obj 421 490 vd~ \$0-1R;
#X obj 38 136 delwrite~ \$0-2L;
#X obj 14 93 delwrite~ \$0-1L;
#X obj 166 497 vd~ \$0-2L;
#X obj 89 547 vd~ \$0-1L;
#X obj 552 230 r \$0-speed;
#X obj 446 68 s \$0-speed;
#X obj 215 256 r \$0-speed;
#X obj 228 350 r \$0-depth;
#X obj 254 434 r \$0-feedback;
#X obj 577 389 r \$0-feedback;
#X obj 571 261 r \$0-depth;
#X obj 583 132 s \$0-feedback;
#X obj 536 100 s \$0-depth;
#X connect 0 0 37 0;
#X connect 0 0 38 0;
#X connect 0 0 27 0;
#X connect 1 0 33 0;
#X connect 1 0 34 0;
#X connect 2 0 3 0;
#X connect 2 0 4 0;
#X connect 3 0 9 0;
#X connect 4 0 5 0;
#X connect 5 0 6 0;
#X connect 6 0 7 0;
#X connect 7 0 8 0;
#X connect 8 0 39 0;
#X connect 9 0 10 0;
#X connect 10 0 40 0;
#X connect 11 0 38 0;
#X connect 13 0 37 0;
#X connect 14 0 15 0;
#X connect 14 0 16 0;
#X connect 15 0 21 0;
#X connect 16 0 17 0;
#X connect 17 0 18 0;
#X connect 18 0 19 0;
#X connect 19 0 20 0;
#X connect 20 0 35 0;
#X connect 21 0 22 0;
#X connect 22 0 36 0;
#X connect 23 0 33 0;
#X connect 24 0 34 0;
#X connect 26 0 27 0;
#X connect 28 0 29 0;
#X connect 30 0 42 0;
#X connect 31 0 49 0;
#X connect 32 0 48 0;
#X connect 35 0 24 0;
#X connect 35 0 25 0;
#X connect 36 0 23 0;
#X connect 36 0 25 0;
#X connect 39 0 12 0;
#X connect 39 0 13 0;
#X connect 40 0 11 0;
#X connect 40 0 12 0;
#X connect 41 0 14 0;
#X connect 43 0 2 0;
#X connect 44 0 9 1;
#X connect 44 0 10 1;
#X connect 44 0 7 1;
#X connect 44 0 8 1;
#X connect 45 0 13 1;
#X connect 45 0 11 1;
#X connect 46 0 24 1;
#X connect 46 0 23 1;
#X connect 47 0 21 1;
#X connect 47 0 22 1;
#X connect 47 0 19 1;
#X connect 47 0 20 1;
#X restore 95 326 pd stereo-flanger;
#N canvas 686 343 450 300 pwm-osc 0;
#N canvas 588 367 450 300 pwm 0;
#X obj 42 106 phasor~;
#X obj 123 106 phasor~;
#X obj 129 241 outlet~;
#X obj 47 26 inlet;
#X obj 136 55 print;
#X obj 314 169 metro 100;
#X obj 317 146 tgl 15 0 empty empty empty 17 7 0 10 -262144 -1 -1 0
1;
#X obj 312 190 snapshot~;
#X floatatom 312 212 5 0 0 0 - - -, f 5;
#X obj 121 152 *~ -0.5;
#X connect 0 0 2 0;
#X connect 1 0 9 0;
#X connect 3 0 0 0;
#X connect 3 0 1 0;
#X connect 3 0 4 0;
#X connect 5 0 7 0;
#X connect 6 0 5 0;
#X connect 7 0 8 0;
#X connect 9 0 2 0;
#X restore 48 134 pd pwm;
#X obj 146 144 osc~;
#X obj 149 69 *;
#X obj 144 186 *~ 0.75;
#X obj 92 232 outlet~;
#X obj 161 231 outlet~;
#X obj 61 27 inlet;
#X obj 102 25 inlet;
#X obj 153 31 inlet;
#X obj 80 175 *~;
#X obj 82 76 pack 0 10;
#X obj 82 98 line~;
#X obj 153 98 pack 0 10;
#X obj 153 121 line~;
#X connect 0 0 9 0;
#X connect 1 0 3 0;
#X connect 2 0 12 0;
#X connect 3 0 5 0;
#X connect 6 0 0 0;
#X connect 7 0 2 0;
#X connect 7 0 10 0;
#X connect 8 0 2 1;
#X connect 9 0 4 0;
#X connect 10 0 11 0;
#X connect 11 0 9 1;
#X connect 12 0 13 0;
#X connect 13 0 1 0;
#X restore 431 199 pd pwm-osc;
#X msg 484 150 8987;
#X msg 742 57 8234;
#X obj 439 316 stereo-delay;
#X msg 420 149 12409;
#X obj 77 500 outlet~;
#X obj 166 500 outlet~;
#X obj 428 488 outlet~;
#X obj 514 479 outlet~;
#X obj 433 417 hip~ 1500;
#X obj 510 419 hip~ 1500;
#X obj 756 315 hip~ 1500;
#X obj 71 433 hip~ 2500;
#X obj 150 434 hip~ 2500;
#X obj 515 38 inlet;
#X obj 573 40 inlet;
#X obj 106 109 loadbang;
#X obj 429 129 loadbang;
#X obj 735 85 phasor~;
#X obj 745 115 *~ 2501;
#X obj 743 147 tabread4~ sawtoothWave;
#X obj 750 390 outlet~;
#X obj 82 356 *~ 0.25;
#X obj 176 351 *~ 0.25;
#X obj 179 46 inlet;
#X obj 232 45 inlet;
#X obj 371 33 inlet;
#X obj 434 39 inlet;
#X msg 207 260 0;
#X obj 217 227 loadbang;
#X msg 517 247 0.1;
#X msg 473 245 0.1;
#X obj 507 212 loadbang;
#X obj 776 199 *~ 0.5;
#X obj 129 253 line;
#X obj 189 200 line;
#X obj 356 179 line;
#X obj 411 255 line;
#X obj 742 36 loadbang;
#X obj 129 231 pack 0 100;
#X obj 411 233 pack 0 100;
#X obj 356 157 pack 0 100;
#X obj 189 178 pack 0 100;
#X connect 0 0 3 1;
#X connect 0 1 7 0;
#X connect 1 0 0 0;
#X connect 2 0 0 2;
#X connect 3 0 26 0;
#X connect 3 1 27 0;
#X connect 4 0 3 0;
#X connect 4 1 7 3;
#X connect 5 0 4 2;
#X connect 6 0 22 0;
#X connect 7 0 13 0;
#X connect 7 1 14 0;
#X connect 8 0 4 0;
#X connect 13 0 11 0;
#X connect 14 0 12 0;
#X connect 15 0 25 0;
#X connect 16 0 9 0;
#X connect 17 0 10 0;
#X connect 18 0 0 1;
#X connect 19 0 4 1;
#X connect 20 0 1 0;
#X connect 20 0 2 0;
#X connect 21 0 8 0;
#X connect 21 0 5 0;
#X connect 22 0 23 0;
#X connect 23 0 24 0;
#X connect 24 0 37 0;
#X connect 26 0 16 0;
#X connect 27 0 17 0;
#X connect 28 0 43 0;
#X connect 29 0 46 0;
#X connect 30 0 45 0;
#X connect 31 0 44 0;
#X connect 32 0 3 4;
#X connect 33 0 32 0;
#X connect 34 0 7 5;
#X connect 35 0 7 2;
#X connect 36 0 34 0;
#X connect 36 0 35 0;
#X connect 37 0 15 0;
#X connect 38 0 3 2;
#X connect 39 0 3 3;
#X connect 40 0 7 1;
#X connect 41 0 7 4;
#X connect 42 0 6 0;
#X connect 43 0 38 0;
#X connect 44 0 41 0;
#X connect 45 0 40 0;
#X connect 46 0 39 0;
