#N canvas 808 177 846 617 10;
#X obj 13 37 inlet~;
#X obj 403 27 inlet~;
#X obj 107 175 clip~ -1 1;
#X obj 107 202 expr~ 0.5*$v1*(3 -($v1*$v1));
#X obj 77 238 *~ 0.8;
#X obj 468 176 clip~ -1 1;
#X obj 442 204 expr~ 0.5*$v1*(3 -($v1*$v1));
#X obj 406 230 *~ 0.8;
#X obj 111 146 vd~ \$0-sdelay-L;
#X obj 476 149 vd~ \$0-sdelay-R;
#X obj 80 447 outlet~;
#X obj 239 444 outlet~;
#X obj 160 38 inlet;
#X obj 600 50 inlet;
#X obj 281 39 inlet;
#X obj 691 48 inlet;
#X obj 428 99 delwrite~ \$0-sdelay-R 100000;
#X obj 31 85 delwrite~ \$0-sdelay-L 100000;
#X obj 71 290 s~ \$0-sdelay-cL;
#X obj 385 288 s~ \$0-sdelay-cR;
#X obj 83 339 r~ \$0-sdelay-cL;
#X obj 239 340 r~ \$0-sdelay-cR;
#X obj 279 390 *~ 0.8;
#X obj 112 390 *~ 0.8;
#X connect 0 0 17 0;
#X connect 0 0 18 0;
#X connect 1 0 16 0;
#X connect 1 0 19 0;
#X connect 2 0 3 0;
#X connect 3 0 4 0;
#X connect 3 0 18 0;
#X connect 4 0 17 0;
#X connect 4 0 18 0;
#X connect 5 0 6 0;
#X connect 6 0 7 0;
#X connect 6 0 19 0;
#X connect 7 0 16 0;
#X connect 7 0 19 0;
#X connect 8 0 2 0;
#X connect 9 0 5 0;
#X connect 12 0 8 0;
#X connect 13 0 9 0;
#X connect 14 0 4 1;
#X connect 15 0 7 1;
#X connect 20 0 23 0;
#X connect 21 0 22 0;
#X connect 22 0 11 0;
#X connect 23 0 10 0;
